<svg width="32" height="32" viewBox="0 0 32 32" fill="none" xmlns="http://www.w3.org/2000/svg">
<path d="M10.737 23.6461C8.284 22.0357 6.676 19.3317 6.676 16.2652C6.676 13.3292 8.156 10.7317 10.436 9.10107" stroke="#939395" stroke-width="1.9291" stroke-miterlimit="10" stroke-linecap="round"/>
<path d="M8.131 6.13623C4.912 8.44211 2.817 12.1158 2.817 16.2652C2.817 20.6007 5.093 24.4231 8.56 26.7011" stroke="#939395" stroke-width="1.9291" stroke-miterlimit="10" stroke-linecap="round"/>
<path d="M21.263 8.8844C23.713 10.4968 25.325 13.2007 25.325 16.2653C25.325 19.2014 23.845 21.7998 21.565 23.4295" stroke="#939395" stroke-width="1.9291" stroke-miterlimit="10" stroke-linecap="round"/>
<path d="M23.867 26.3952C27.088 24.0893 29.181 20.4166 29.181 16.2653C29.181 11.9307 26.906 8.10837 23.439 5.82935" stroke="#939395" stroke-width="1.9291" stroke-miterlimit="10" stroke-linecap="round"/>
<path d="M12.914 20.5931C11.476 19.6483 10.533 18.0627 10.533 16.2652C10.533 14.5454 11.401 13.0222 12.736 12.0659" stroke="#939395" stroke-width="1.9291" stroke-miterlimit="10" stroke-linecap="round"/>
<path d="M10.436 9.10107C8.157 10.7317 6.676 13.3292 6.676 16.2652C6.676 19.3317 8.284 22.0357 10.738 23.6461" stroke="#939395" stroke-width="1.9291" stroke-miterlimit="10" stroke-linecap="round"/>
<path d="M25.324 16.2653C25.324 13.2007 23.713 10.4958 21.262 8.8844" stroke="#939395" stroke-width="1.9291" stroke-miterlimit="10" stroke-linecap="round"/>
<path d="M19.084 11.9393C20.522 12.8832 21.466 14.4687 21.466 16.2652C21.466 17.987 20.597 19.5102 19.262 20.4655" stroke="#939395" stroke-width="1.9291" stroke-miterlimit="10" stroke-linecap="round"/>
<path d="M19.262 20.4655C20.597 19.5102 21.466 17.987 21.466 16.2652C21.466 14.4687 20.522 12.8841 19.084 11.9393" stroke="#939395" stroke-width="1.9291" stroke-miterlimit="10" stroke-linecap="round"/>
<path d="M12.736 12.0659C11.401 13.0222 10.533 14.5454 10.533 16.2652C10.533 18.0627 11.476 19.6473 12.914 20.5931" stroke="#939395" stroke-width="1.9291" stroke-miterlimit="10" stroke-linecap="round"/>
<path d="M16 18.2968C17.0659 18.2968 17.93 17.468 17.93 16.4456C17.93 15.4232 17.0659 14.5944 16 14.5944C14.9341 14.5944 14.07 15.4232 14.07 16.4456C14.07 17.468 14.9341 18.2968 16 18.2968Z" fill="#939395"/>
</svg>
