<svg width="32" height="32" viewBox="0 0 32 32" fill="none" xmlns="http://www.w3.org/2000/svg">
<path d="M10.6785 27.5976C12.8756 27.1818 14.3859 25.5276 14.0516 23.9029C13.7174 22.2782 11.6653 21.2983 9.46807 21.7142C7.27088 22.13 5.76067 23.7842 6.09491 25.4089C6.42914 27.0336 8.48127 28.0135 10.6785 27.5976Z" fill="#939395"/>
<path d="M22.6208 25.1851C24.8057 24.7136 26.2696 23.0213 25.8905 21.4052C25.5115 19.7891 23.433 18.8613 21.2481 19.3328C19.0632 19.8043 17.5993 21.4966 17.9784 23.1127C18.3575 24.7288 20.436 25.6567 22.6208 25.1851Z" fill="#939395"/>
<path d="M14.07 7.31384H12.822V24.0689H14.07V7.31384Z" fill="#939395"/>
<path d="M25.923 4.92065H24.676V21.6747H25.923V4.92065Z" fill="#939395"/>
<path d="M12.822 7.31382L25.299 4.92065V9.70794L13.446 12.6996L12.822 7.31382Z" fill="#939395"/>
</svg>
