<svg width="32" height="32" viewBox="0 0 32 32" fill="none" xmlns="http://www.w3.org/2000/svg">
<path d="M22 3.83679H10V5.57579H22V3.83679Z" fill="#909092"/>
<path d="M24 6.71436H8V8.63272H24V6.71436Z" fill="#909092"/>
<path d="M26 9.59192H6V28.7756H26V9.59192Z" fill="#909092"/>
<path d="M13.7784 23.8295C14.976 23.4463 15.7042 22.4379 15.4049 21.5771C15.1055 20.7163 13.892 20.3291 12.6944 20.7122C11.4967 21.0954 10.7685 22.1038 11.0679 22.9646C11.3672 23.8254 12.5807 24.2126 13.7784 23.8295Z" fill="white"/>
<path d="M15.479 14.3878H15V22.0613H15.479V14.3878Z" fill="white"/>
<path d="M19.571 15.9081L15 17.2654V14.1001L19.571 12.7438V15.9081Z" fill="white"/>
</svg>
